PathFileType	4	(X/Y/Z)	/Users/itak/Documents/Research/Walk-IL/dataset/trc/00300_00010.trc
DataRate	CameraRate	NumFrames	NumMarkers	Units	OrigDataRate	OrigDataStartFrame	OrigNumFrames
100.000000	100.000000	4	54	mm	100.000000	0	454
Frame#	Time	RPSI			LPSI			L3			STRN			T10			C7			CLAV			RBAK			LBAK			LSHO			LUPA			LAEL			LAOL			LWTS			LWPS			LFRA			LIFD			LHPS			LHTS			RSHO			RUPA			RAEL			RAOL			RWTS			RWPS			RFRA			RIFD			RHTS			RHPS			RBHD			LFHD			RFHD			LBHD			LHIP			RHIP			RASI			LASI			LKNE			LTHI			LANK			LTIP			LTOE			LMT1			LMT5			LHEE			RKNE			RTHI			RANK			RTIP			RTOE			RMT1			RMT5			RHEE			*53			
		X1	Y1	Z1	X2	Y2	Z2	X3	Y3	Z3	X4	Y4	Z4	X5	Y5	Z5	X6	Y6	Z6	X7	Y7	Z7	X8	Y8	Z8	X9	Y9	Z9	X10	Y10	Z10	X11	Y11	Z11	X12	Y12	Z12	X13	Y13	Z13	X14	Y14	Z14	X15	Y15	Z15	X16	Y16	Z16	X17	Y17	Z17	X18	Y18	Z18	X19	Y19	Z19	X20	Y20	Z20	X21	Y21	Z21	X22	Y22	Z22	X23	Y23	Z23	X24	Y24	Z24	X25	Y25	Z25	X26	Y26	Z26	X27	Y27	Z27	X28	Y28	Z28	X29	Y29	Z29	X30	Y30	Z30	X31	Y31	Z31	X32	Y32	Z32	X33	Y33	Z33	X34	Y34	Z34	X35	Y35	Z35	X36	Y36	Z36	X37	Y37	Z37	X38	Y38	Z38	X39	Y39	Z39	X40	Y40	Z40	X41	Y41	Z41	X42	Y42	Z42	X43	Y43	Z43	X44	Y44	Z44	X45	Y45	Z45	X46	Y46	Z46	X47	Y47	Z47	X48	Y48	Z48	X49	Y49	Z49	X50	Y50	Z50	X51	Y51	Z51	X52	Y52	Z52	X53	Y53	Z53	X54	Y54	Z54	

1	0	-1412.874389648438	1018.825439453125	702.8243408203125	-1402.982543945312	1011.478942871094	525.0265502929688	-1385.572387695312	1080.966186523438	612.2474365234375	-1135.655883789062	1252.09765625	621.1326904296875	-1400.273559570312	1190.941284179688	609.0357666015625	-1353.4990234375	1435.976806640625	594.9141235351562	-1198.682006835938	1353.480346679688	613.255859375	-1410.135009765625	1298.915405273438	668.8656616210938	-1361.367797851562	1398.8251953125	488.5739135742188	-1266.524536132812	1404.686157226562	443.2802734375	-1280.258544921875	1286.106323242188	368.5719909667969	-1256.223876953125	1081.629516601562	360.4429931640625	-1330.530029296875	1066.12451171875	402.2276000976562	-1186.820922851562	862.5651245117188	442.6432189941406	-1195.876098632812	847.4734497070312	372.4010009765625	-1234.11181640625	977.4188842773438	360.6652526855469	-1177.412109375	678.5951538085938	448.1515808105469	-1189.635131835938	759.3115234375	379.7559509277344	-1155.229858398438	764.8883666992188	436.2872619628906	-1296.349853515625	1412.79736328125	759.1170654296875	-1305.579711914062	1353.4111328125	825.4276123046875	-1300.115478515625	1085.382202148438	872.7048950195312	-1335.301147460938	1077.543579101562	784.2073364257812	-1194.26708984375	865.3944702148438	808.7446899414062	-1231.198364257812	857.6212768554688	884.7981567382812	-1271.909912109375	1018.572265625	881.89794921875	-1176.68798828125	678.4982299804688	805.1309204101562	-1159.210693359375	750.9917602539062	820.891357421875	-1203.726684570312	746.002197265625	875.5472412109375	-1334.534545898438	1595.552856445312	669.5175170898438	-1155.830932617188	1638.127197265625	562.7271118164062	-1163.968017578125	1637.081298828125	655.210693359375	-1321.512573242188	1587.94580078125	524.3157348632812	-1325.18017578125	952.7235107421875	441.6428833007812	-1318.017456054688	963.6555786132812	810.6549682617188	-1195.116088867188	963.13623046875	746.5158081054688	-1193.712646484375	958.813232421875	494.6012878417969	-1294.220092773438	490.2581787109375	461.3318481445312	-1292.000610351562	633.5055541992188	442.5595703125	-1362.365356445312	46.99412155151367	461.58203125	-1338.409423828125	268.8419799804688	450.363037109375	-1161.589477539062	46.83091735839844	538.59228515625	-1234.236083984375	39.67512893676758	571.5574951171875	-1235.5556640625	46.43623733520508	458.5259094238281	-1413.51025390625	40.34121322631836	515.7756958007812	-1305.165161132812	488.6841430664062	775.7692260742188	-1268.580078125	749.071044921875	810.2326049804688	-1372.411743164062	48.3419303894043	743.8670654296875	-1301.646606445312	367.3936767578125	763.2457275390625	-1172.671142578125	50.13954162597656	707.359619140625	-1226.0791015625	46.5357551574707	662.6878662109375	-1270.372436523438	40.34326934814453	771.6270141601562	-1419.670532226562	46.49222564697266	689.228271484375	nan	nan	nan	
2	0.01	-1412.543579101562	1018.747924804688	703.3577880859375	-1402.569458007812	1011.42041015625	525.5106811523438	-1385.199340820312	1081.058715820312	612.67578125	-1135.073608398438	1252.040649414062	621.677001953125	-1399.779052734375	1191.085815429688	609.4603881835938	-1352.745239257812	1436.044067382812	595.29638671875	-1197.9677734375	1353.428100585938	613.6882934570312	-1409.564697265625	1299.073608398438	669.2694702148438	-1360.59619140625	1398.916870117188	488.9613647460938	-1265.723876953125	1404.672119140625	443.7294311523438	-1279.548706054688	1286.130615234375	368.9882202148438	-1255.678588867188	1081.634521484375	360.7716369628906	-1329.895751953125	1066.134643554688	402.5994262695312	-1186.30419921875	862.4361572265625	442.8175964355469	-1195.519775390625	847.4193115234375	372.4707946777344	-1233.566040039062	977.43115234375	360.8844604492188	-1177.259643554688	678.484619140625	448.0114135742188	-1189.486572265625	759.3075561523438	379.7545166015625	-1154.927368164062	764.717529296875	436.3114929199219	-1295.718017578125	1412.897705078125	759.5498657226562	-1304.957763671875	1353.477416992188	825.8330078125	-1299.603515625	1085.390991210938	873.2158203125	-1334.900268554688	1077.603881835938	784.7619018554688	-1194.025634765625	865.3821411132812	809.2918090820312	-1230.880615234375	857.6234130859375	885.430419921875	-1271.461059570312	1018.645568847656	882.4100952148438	-1176.489990234375	678.4324951171875	805.8687133789062	-1159.138793945312	750.9140625	821.4722900390625	-1203.55712890625	746.16064453125	876.2909545898438	-1333.833862304688	1595.473876953125	669.97607421875	-1155.207763671875	1638.170288085938	563.1447143554688	-1163.360717773438	1637.08447265625	655.6209106445312	-1320.863037109375	1587.869140625	524.7837524414062	-1324.670776367188	952.6200561523438	442.1653747558594	-1317.6572265625	963.5364990234375	811.013427734375	-1194.874877929688	963.1134033203125	747.064697265625	-1193.248779296875	958.7803344726562	495.109130859375	-1293.697509765625	490.2658386230469	461.6214599609375	-1291.519409179688	633.4658203125	442.9126892089844	-1362.340209960938	47.03846740722656	461.6282958984375	-1337.9736328125	268.8429260253906	450.5267028808594	-1161.571166992188	46.75510787963867	538.613525390625	-1234.160888671875	39.60895538330078	571.5933837890625	-1235.5205078125	46.43830108642578	458.5785522460938	-1413.489135742188	40.34231567382812	515.8287963867188	-1304.609375	488.61474609375	776.020263671875	-1268.100341796875	748.9839477539062	810.5217895507812	-1372.410278320312	48.32318878173828	743.8794555664062	-1301.189453125	367.2807312011719	763.3679809570312	-1172.689819335938	50.15311431884766	707.3602905273438	-1226.030639648438	46.58839797973633	662.6975708007812	-1270.3662109375	40.47204971313477	771.718994140625	-1419.6474609375	46.47894287109375	689.2557373046875	nan	nan	nan	
3	0.02	-1412.121459960938	1018.63330078125	704.007568359375	-1402.04443359375	1011.353210449219	526.1421508789062	-1384.703491210938	1081.150756835938	613.2322998046875	-1134.326416015625	1251.962158203125	622.3751220703125	-1399.135986328125	1191.256713867188	609.9910278320312	-1351.78955078125	1436.132080078125	595.7974853515625	-1197.058227539062	1353.356079101562	614.253173828125	-1408.837524414062	1299.267456054688	669.7930297851562	-1359.611450195312	1399.016357421875	489.4614562988281	-1264.70654296875	1404.656005859375	444.3123779296875	-1278.634155273438	1286.149536132812	369.5332946777344	-1254.97021484375	1081.626708984375	361.2027893066406	-1329.101806640625	1066.15087890625	403.0716552734375	-1185.709594726562	862.2656860351562	443.0147399902344	-1195.083984375	847.3567504882812	372.5791015625	-1232.908447265625	977.4338989257812	361.1704711914062	-1177.043823242188	678.3211669921875	447.8569946289062	-1189.316772460938	759.2914428710938	379.7520141601562	-1154.580078125	764.5012817382812	436.3207397460938	-1294.913452148438	1413.004516601562	760.1158447265625	-1304.172485351562	1353.559326171875	826.36279296875	-1298.956420898438	1085.404907226562	873.8688354492188	-1334.386840820312	1077.681518554688	785.4754638671875	-1193.689453125	865.3636474609375	810.002685546875	-1230.482177734375	857.6251831054688	886.2344360351562	-1270.895263671875	1018.732543945312	883.074951171875	-1176.246337890625	678.3304443359375	806.7899780273438	-1158.970825195312	750.8075561523438	822.231689453125	-1203.296752929688	746.3305053710938	877.2066040039062	-1332.934936523438	1595.369995117188	670.5764770507812	-1154.40966796875	1638.215942382812	563.6787109375	-1162.566040039062	1637.085815429688	656.153564453125	-1320.031005859375	1587.76513671875	525.3944702148438	-1324.033081054688	952.5100708007812	442.8232116699219	-1317.21533203125	963.4229125976562	811.5466918945312	-1194.52978515625	963.0944213867188	747.7703857421875	-1192.661865234375	958.7366943359375	495.7833251953125	-1293.005126953125	490.2697448730469	462.0179748535156	-1290.871459960938	633.41796875	443.3802490234375	-1362.30224609375	47.10483551025391	461.6925659179688	-1337.406005859375	268.8309020996094	450.7269287109375	-1161.549682617188	46.64943695068359	538.6541748046875	-1234.061645507812	39.51480865478516	571.6528930664062	-1235.474731445312	46.44491958618164	458.6487121582031	-1413.459594726562	40.35019302368164	515.898681640625	-1303.906982421875	488.5346374511719	776.3595581054688	-1267.498168945312	748.8828125	810.9251708984375	-1372.410034179688	48.30228042602539	743.8946533203125	-1300.584350585938	367.1387939453125	763.533447265625	-1172.7060546875	50.16392135620117	707.357666015625	-1225.981811523438	46.66621017456055	662.7218627929688	-1270.358764648438	40.5955810546875	771.8116455078125	-1419.621948242188	46.46372222900391	689.2855834960938	nan	nan	nan	
4	0.03	-1411.617431640625	1018.479187011719	704.7448120117188	-1401.422485351562	1011.278381347656	526.90380859375	-1384.100463867188	1081.232177734375	613.8981323242188	-1133.438110351562	1251.860473632812	623.2072143554688	-1398.361083984375	1191.44580078125	610.6104736328125	-1350.6650390625	1436.237670898438	596.406005859375	-1195.98486328125	1353.2626953125	614.9381103515625	-1407.97802734375	1299.486206054688	670.4229125976562	-1358.446044921875	1399.114135742188	490.0627136230469	-1263.505493164062	1404.638671875	445.0135498046875	-1277.5419921875	1286.159057617188	370.19482421875	-1254.119018554688	1081.604858398438	361.7240600585938	-1328.181762695312	1066.174560546875	403.6327514648438	-1185.085815429688	862.0582275390625	443.219482421875	-1194.590576171875	847.2892456054688	372.7301940917969	-1232.170776367188	977.4223022460938	361.5210266113281	-1176.767456054688	678.1076049804688	447.6992492675781	-1189.134521484375	759.2591552734375	379.7492980957031	-1154.211059570312	764.2487182617188	436.3072814941406	-1293.96240234375	1413.105346679688	760.802001953125	-1303.254760742188	1353.653198242188	827.00732421875	-1298.19677734375	1085.425903320312	874.6458740234375	-1333.78173828125	1077.770385742188	786.3255615234375	-1193.263061523438	865.336181640625	810.856689453125	-1230.016967773438	857.625244140625	887.1813354492188	-1270.233642578125	1018.825988769531	883.8766479492188	-1175.960815429688	678.2007446289062	807.8634643554688	-1158.687377929688	750.671630859375	823.141845703125	-1202.937744140625	746.4913330078125	878.25048828125	-1331.864013671875	1595.2451171875	671.3056030273438	-1153.459594726562	1638.257568359375	564.3121948242188	-1161.599975585938	1637.08349609375	656.793701171875	-1319.043823242188	1587.634521484375	526.1336059570312	-1323.288940429688	952.4066162109375	443.5904235839844	-1316.71337890625	963.3228759765625	812.2503662109375	-1194.088745117188	963.0797119140625	748.61669921875	-1191.970703125	958.6843872070312	496.6122741699219	-1292.1484375	490.2698364257812	462.5173034667969	-1290.054565429688	633.369384765625	443.958251953125	-1362.250244140625	47.19564437866211	461.7751770019531	-1336.72705078125	268.8013610839844	450.9580383300781	-1161.529052734375	46.51648712158203	538.71875	-1233.941650390625	39.39130020141602	571.740234375	-1235.420043945312	46.45763778686523	458.7347412109375	-1413.422485351562	40.36886978149414	515.98486328125	-1303.088623046875	488.4477844238281	776.77880859375	-1266.790405273438	748.769287109375	811.4244995117188	-1372.411499023438	48.28066253662109	743.911865234375	-1299.850830078125	366.9764404296875	763.739501953125	-1172.714965820312	50.16894912719727	707.3497924804688	-1225.943969726562	46.75257110595703	662.7545776367188	-1270.35107421875	40.69289398193359	771.8910522460938	-1419.595825195312	46.44862365722656	689.3152465820312	nan	nan	nan	
